<svg width="96" height="50" viewBox="0 0 96 50" fill="none" xmlns="http://www.w3.org/2000/svg">
<path fill-rule="evenodd" clip-rule="evenodd" d="M75.3076 31.6763C76.7884 31.6763 77.7776 33.1169 77.2742 34.5457C77.0262 35.2613 76.5395 35.8058 76.0525 36.3508C76.011 36.3973 75.9694 36.4437 75.9281 36.4903C75.5827 36.8756 75.2491 37.2729 74.9623 37.6997C74.5526 38.3104 74.3478 39.0159 74.2131 39.7392C74.1722 39.9644 74.1195 40.1838 74.0493 40.3972C73.6864 41.5711 72.7265 42.1224 71.5618 41.7608C70.1278 41.3162 69.3259 40.249 68.9396 38.8321C68.6645 37.8124 68.8226 36.846 69.4371 35.9923C69.6244 35.7255 69.9405 35.5299 70.2331 35.3757C70.4635 35.2542 70.7254 35.1924 70.9833 35.1316C71.0399 35.1183 71.0962 35.105 71.152 35.0911C71.831 34.9251 72.2992 34.5161 72.6445 33.9113C72.9255 33.4193 73.224 32.9272 73.5869 32.4944C74.0258 31.9727 74.6111 31.6763 75.3076 31.6763ZM90.3667 37.8835C90.2906 39.425 89.6585 40.6522 88.3357 41.4703C87.8148 41.7905 87.2471 41.9446 86.6267 41.832C85.9828 41.7134 85.5087 41.3636 85.2688 40.747C85.1224 40.3617 85.0171 39.9585 84.9352 39.5554C84.6952 38.3934 84.1684 37.4033 83.3373 36.5555C82.9159 36.1227 82.5354 35.6425 82.196 35.1445C81.8858 34.6939 81.7219 34.1663 81.7863 33.6031C81.9794 31.9372 83.7646 31.1368 85.14 32.0972C85.7604 32.53 86.1818 33.1347 86.492 33.8165C86.8315 34.5457 87.3875 34.9489 88.1426 35.1327C88.4762 35.2157 88.8098 35.3402 89.12 35.4943C90.0155 35.939 90.2789 36.763 90.3608 37.6938C90.3696 37.7338 90.3685 37.7838 90.3674 37.8338V37.8339C90.3672 37.8456 90.3669 37.8573 90.3668 37.8689C90.3667 37.8738 90.3667 37.8787 90.3667 37.8835ZM80.1441 41.9778C79.9678 41.9495 79.7914 41.9212 79.6155 41.8912C79.6155 41.897 79.6149 41.9033 79.6143 41.9099C79.613 41.9237 79.6115 41.9385 79.6155 41.9505C79.4985 41.9594 79.3814 41.9653 79.2643 41.9713C79.1473 41.9772 79.0302 41.9831 78.9132 41.992C78.2459 42.0454 77.5904 42.158 77.0051 42.5019C75.8989 43.154 75.8228 44.5057 76.8588 45.2646C77.0481 45.404 77.2595 45.5146 77.4698 45.6247C77.5456 45.6644 77.6213 45.704 77.6958 45.7448C77.8077 45.8071 77.9221 45.8668 78.0365 45.9266C78.2272 46.0262 78.4179 46.1257 78.5971 46.2369C78.8898 46.4207 79.1005 46.6875 79.118 47.0491C79.159 47.891 78.761 48.5905 77.7953 48.5965C77.6021 48.5965 77.3914 48.5965 77.2158 48.5313C76.9672 48.4411 76.7249 48.3362 76.4824 48.2312C76.2625 48.1361 76.0424 48.0408 75.817 47.9562C75.6823 47.9028 75.4775 47.9028 75.3663 47.9799C75.2726 48.0451 75.22 48.2585 75.2375 48.389C75.2551 48.4957 75.3897 48.6083 75.495 48.6854C77.0519 49.7703 78.7668 50.1853 80.6339 49.9245C81.7811 49.7644 82.8288 49.3316 83.777 48.6498C84.0111 48.4838 84.0696 48.2645 83.9467 48.0688C83.8179 47.8673 83.6072 47.8317 83.3556 47.974C83.3117 47.9977 83.2692 48.0214 83.2268 48.0451C83.1844 48.0688 83.1419 48.0925 83.098 48.1163C82.5127 48.4364 81.904 48.6558 81.2251 48.5905C80.669 48.5313 80.2828 48.1933 80.1423 47.6538C79.9784 47.0195 80.1072 46.5808 80.5988 46.2488C80.7719 46.1318 80.9589 46.0369 81.1458 45.9419C81.2813 45.8731 81.4167 45.8042 81.547 45.727C81.6225 45.6829 81.6992 45.64 81.7759 45.597C82.05 45.4434 82.3251 45.2893 82.5537 45.0808C83.297 44.405 83.2326 43.2548 82.4249 42.662C82.1791 42.4782 81.8865 42.3181 81.5938 42.247C81.1169 42.1338 80.6306 42.0558 80.1441 41.9778Z" fill="white"/>
<path fill-rule="evenodd" clip-rule="evenodd" d="M26.1485 49.9999V45.1894H7.53358L25.5791 23.1924V19.3877H0.306599V24.1982H18.0456L0 46.1952V49.9999H26.1485ZM54.7789 34.6938C54.7789 40.1344 50.3593 44.5593 44.8896 44.5593C39.4199 44.5593 35.0002 40.1344 35.0002 34.6938C35.0002 29.2532 39.4199 24.8283 44.8896 24.8283C50.3593 24.8283 54.7789 29.2532 54.7789 34.6938ZM60.2195 34.6938C60.2195 43.1471 53.3561 49.9999 44.8896 49.9999C36.4231 49.9999 29.5596 43.1471 29.5596 34.6938C29.5596 26.2405 36.4231 19.3877 44.8896 19.3877C53.3561 19.3877 60.2195 26.2405 60.2195 34.6938Z" fill="white"/>
<path fill-rule="evenodd" clip-rule="evenodd" d="M52.3481 4.98807H49.8296V16.1798H52.3481V4.98807ZM49.9505 2.70362C50.2594 2.99703 50.6422 3.14374 51.0989 3.14374C51.569 3.14374 51.9518 2.99005 52.2473 2.68266C52.5563 2.3613 52.7108 1.97008 52.7108 1.509C52.7108 1.07586 52.5563 0.719568 52.2473 0.440123C51.9384 0.146708 51.5556 0 51.0989 0C50.6422 0 50.2594 0.153694 49.9505 0.461081C49.6415 0.754498 49.4871 1.12476 49.4871 1.57187C49.4871 2.01898 49.6415 2.39623 49.9505 2.70362ZM44.0056 0.628748H46.5241V16.1798H44.0056V0.628748ZM19.1208 15.593C19.9938 16.082 20.9744 16.3265 22.0624 16.3265C23.1638 16.3265 24.151 16.082 25.0241 15.593C25.8972 15.1039 26.5755 14.4263 27.0591 13.56C27.556 12.6798 27.8045 11.6877 27.8045 10.5839C27.8045 9.48013 27.556 8.49509 27.0591 7.62882C26.5755 6.76254 25.8972 6.08489 25.0241 5.59586C24.151 5.10684 23.1638 4.86232 22.0624 4.86232C20.9744 4.86232 19.9938 5.10684 19.1208 5.59586C18.2477 6.08489 17.5626 6.76254 17.0657 7.62882C16.5821 8.49509 16.3403 9.48013 16.3403 10.5839C16.3403 11.6877 16.5821 12.6798 17.0657 13.56C17.5626 14.4263 18.2477 15.1039 19.1208 15.593ZM24.3592 13.1199C23.7548 13.7626 22.9892 14.084 22.0624 14.084C21.1356 14.084 20.3699 13.7626 19.7655 13.1199C19.1745 12.4772 18.879 11.6319 18.879 10.5839C18.879 9.53602 19.1745 8.6907 19.7655 8.04798C20.3699 7.40526 21.1356 7.0839 22.0624 7.0839C22.9892 7.0839 23.7548 7.40526 24.3592 8.04798C24.9637 8.6907 25.2659 9.53602 25.2659 10.5839C25.2659 11.6319 24.9637 12.4772 24.3592 13.1199ZM39.5817 6.09886C38.7623 5.2745 37.6743 4.86232 36.3177 4.86232C35.5252 4.86232 34.8133 4.99506 34.182 5.26053C33.5507 5.526 33.0269 5.91722 32.6105 6.43419V4.98807H30.2128V16.1798H32.7313V10.5211C32.7313 9.43123 33 8.59988 33.5373 8.02702C34.0745 7.44019 34.8066 7.14678 35.7334 7.14678C36.5527 7.14678 37.1841 7.39828 37.6273 7.90127C38.0706 8.3903 38.2922 9.12384 38.2922 10.1019V16.1798H40.8107V9.76656C40.8107 8.14579 40.401 6.92322 39.5817 6.09886ZM61.7584 4.86232C63.1151 4.86232 64.2031 5.2745 65.0224 6.09886C65.8418 6.92322 66.2515 8.14579 66.2515 9.76656V16.1798H63.733V10.1019C63.733 9.12384 63.5113 8.3903 63.0681 7.90127C62.6248 7.39828 61.9935 7.14678 61.1742 7.14678C60.2474 7.14678 59.5153 7.44019 58.978 8.02702C58.4408 8.59988 58.1721 9.43123 58.1721 10.5211V16.1798H55.6536V4.98807H58.0512V6.43419C58.4676 5.91722 58.9915 5.526 59.6228 5.26053C60.2541 4.99506 60.966 4.86232 61.7584 4.86232ZM79.6187 11.4223C79.6456 11.0869 79.659 10.8284 79.659 10.6468C79.659 9.50109 79.4239 8.49509 78.9538 7.62882C78.4971 6.74857 77.8524 6.07092 77.0196 5.59586C76.2003 5.10684 75.2667 4.86232 74.219 4.86232C73.1579 4.86232 72.2042 5.10684 71.358 5.59586C70.5118 6.08489 69.8469 6.76953 69.3634 7.64978C68.8933 8.51605 68.6582 9.4941 68.6582 10.5839C68.6582 11.6877 68.9 12.6798 69.3835 13.56C69.8805 14.4263 70.579 15.1039 71.4789 15.593C72.3789 16.082 73.4198 16.3265 74.6018 16.3265C75.5287 16.3265 76.3614 16.1728 77.1002 15.8654C77.839 15.558 78.4501 15.1039 78.9337 14.5031L77.5838 12.8893C76.8181 13.6997 75.8443 14.1049 74.6623 14.1049C73.7355 14.1049 72.9564 13.8674 72.3251 13.3923C71.7073 12.9033 71.3244 12.2466 71.1767 11.4223H79.6187ZM72.1639 7.71265C72.7281 7.20965 73.4131 6.95815 74.219 6.95815C75.0384 6.95815 75.7234 7.20965 76.2741 7.71265C76.8248 8.21565 77.1539 8.87234 77.2614 9.68273H71.1565C71.2774 8.85837 71.6132 8.20168 72.1639 7.71265ZM93.0242 31.6501C94.819 30.4484 96.0005 28.4041 96.0005 26.0843C96.0005 22.3859 92.9976 19.3877 89.2934 19.3877C86.924 19.3877 84.8416 20.6144 83.6484 22.4665C87.9925 23.9574 91.4505 27.3508 93.0242 31.6501ZM66.2608 31.6504C64.4659 30.4487 63.2844 28.4044 63.2844 26.0845C63.2844 22.3861 66.2873 19.3879 69.9914 19.3879C72.3609 19.3879 74.4433 20.6147 75.6365 22.4668C71.2924 23.9577 67.8344 27.3511 66.2608 31.6504Z" fill="white"/>
</svg>
